<svg id="visual" viewBox="0 0 960 540" width="960" height="540" xmlns="http://www.w3.org/2000/svg" xmlns:xlink="http://www.w3.org/1999/xlink" version="1.1"><path d="M0 374L22.8 374.5C45.7 375 91.3 376 137 394.8C182.7 413.7 228.3 450.3 274 453.5C319.7 456.7 365.3 426.3 411.2 405.3C457 384.3 503 372.7 548.8 365C594.7 357.3 640.3 353.7 686 361.3C731.7 369 777.3 388 823 412.5C868.7 437 914.3 467 937.2 482L960 497L960 541L937.2 541C914.3 541 868.7 541 823 541C777.3 541 731.7 541 686 541C640.3 541 594.7 541 548.8 541C503 541 457 541 411.2 541C365.3 541 319.7 541 274 541C228.3 541 182.7 541 137 541C91.3 541 45.7 541 22.8 541L0 541Z" fill="#b4d2db" stroke-linecap="round" stroke-linejoin="miter"></path></svg>